# xmcd
#
# Track frame offsets:
#	150
#	2810
#	8585
#	23504
#	30435
#	41207
#	47567
#	64816
#	68581
#	94271
#	101424
#	129449
#	137290
#	151776
#	158365
#	170674
#	175322
#	193859
#	198043
#
# Disc length: 2834 seconds
#
# Revision: 0
# Processed by: cddbd v1.4PL0 Copyright (c) Steve Scherf et al.
# Submitted via: dBpowerAMP V4.0
#
DISCID=df0b1013
DTITLE=Skip James - The Complete Bloomington Collection
DYEAR=1998
DGENRE=Blues
TTITLE0=Introduction by Peter Narvaez
TTITLE1=Skip James Talking
TTITLE2=God Is Real
TTITLE3=Skip Talking
TTITLE4=Crow Jane
TTITLE5=Skip Talking
TTITLE6=Look Down The Road
TTITLE7=Skip Talking
TTITLE8=Lorenzo Blues
TTITLE9=Skip Talking
TTITLE10=Devil Got My Woman
TTITLE11=Skip Talking
TTITLE12=I'm So Glad
TTITLE13=Skip Talking
TTITLE14=Hard Time Killin' Floor Blues
TTITLE15=Skip Talking
TTITLE16=Cherry Ball Blues
TTITLE17=Skip Talking
TTITLE18=Sickbed Blues
EXTD=
EXTT0=
EXTT1=
EXTT2=
EXTT3=
EXTT4=
EXTT5=
EXTT6=
EXTT7=
EXTT8=
EXTT9=
EXTT10=
EXTT11=
EXTT12=
EXTT13=
EXTT14=
EXTT15=
EXTT16=
EXTT17=
EXTT18=
PLAYORDER=
